<svg width="22" height="18" viewBox="0 0 22 18" fill="none" xmlns="http://www.w3.org/2000/svg">
<path d="M0.4375 2H13.5625C13.804 2 14 1.553 14 1C14 0.447 13.804 0 13.5625 0H0.4375C0.196 0 0 0.447 0 1C0 1.553 0.195563 2 0.4375 2Z" fill="#FFFBFB"/>
<path d="M7.46875 18H21.5312C21.79 18 22 17.553 22 17C22 16.447 21.79 16 21.5312 16H7.46875C7.21 16 7 16.447 7 17C7 17.553 7.20953 18 7.46875 18Z" fill="#FFFBFB"/>
<path d="M21.3088 9.5H0.691011C0.682096 9.497 0.653401 9.48258 0.613201 9.42411C0.553261 9.33693 0.5 9.18867 0.5 9C0.5 8.81157 0.55331 8.66332 0.613367 8.57602C0.653581 8.51757 0.682307 8.50305 0.691239 8.5H21.3088C21.3177 8.50305 21.3464 8.51757 21.3866 8.57602C21.4467 8.66332 21.5 8.81157 21.5 9C21.5 9.18843 21.4467 9.33668 21.3866 9.42398C21.3464 9.48243 21.3177 9.49695 21.3088 9.5ZM21.3058 8.4993C21.3058 8.49923 21.3066 8.49932 21.3081 8.49978L21.3058 8.4993ZM0.694173 8.4993C0.694191 8.49937 0.693455 8.4996 0.691911 8.49978L0.694173 8.4993ZM0.693935 9.50068C0.693916 9.50075 0.693125 9.50066 0.691619 9.5002L0.693935 9.50068ZM21.3081 9.50022C21.3066 9.50068 21.3058 9.50077 21.3058 9.5007L21.3081 9.50022Z" fill="#FFFBFB" stroke="white"/>
</svg>
